<svg xmlns="http://www.w3.org/2000/svg" width="1000" height="520" viewBox="0 0 1000 520" role="img" aria-label="Logical entailment micro Super versus Ultra comparison">
<rect width="100%" height="100%" fill="#ffffff"/>
<text x="50" y="42" font-family="Arial, sans-serif" font-size="24" font-weight="700" fill="#1f2933">LE micro smoke: Super vs Ultra</text>
<text x="50" y="68" font-family="Arial, sans-serif" font-size="13" fill="#52616b">8 documents per corpus; Stage 1A deterministic metrics before judge/training</text>
<text x="50" y="92" font-family="Arial, sans-serif" font-size="16" font-weight="700" fill="#1f2933">Rows</text>
<line x1="50" y1="400" x2="320" y2="400" stroke="#a7b0b8"/>
<rect x="105.0" y="297.3" width="34" height="102.7" fill="#2f6f73" rx="2"/>
<text x="122.0" y="291.3" text-anchor="middle" font-family="Arial, sans-serif" font-size="11" fill="#1f2933">46</text>
<rect x="147.0" y="199.0" width="34" height="201.0" fill="#b55a30" rx="2"/>
<text x="164.0" y="193.0" text-anchor="middle" font-family="Arial, sans-serif" font-size="11" fill="#1f2933">90</text>
<text x="139.0" y="424" text-anchor="middle" font-family="Arial, sans-serif" font-size="12" fill="#52616b">NIM</text>
<rect x="220.0" y="333.0" width="34" height="67.0" fill="#2f6f73" rx="2"/>
<text x="237.0" y="327.0" text-anchor="middle" font-family="Arial, sans-serif" font-size="11" fill="#1f2933">30</text>
<rect x="262.0" y="170.0" width="34" height="230.0" fill="#b55a30" rx="2"/>
<text x="279.0" y="164.0" text-anchor="middle" font-family="Arial, sans-serif" font-size="11" fill="#1f2933">103</text>
<text x="254.0" y="424" text-anchor="middle" font-family="Arial, sans-serif" font-size="12" fill="#52616b">NeMo</text>
<text x="355" y="92" font-family="Arial, sans-serif" font-size="16" font-weight="700" fill="#1f2933">Entailments</text>
<line x1="355" y1="400" x2="625" y2="400" stroke="#a7b0b8"/>
<rect x="410.0" y="294.3" width="34" height="105.7" fill="#2f6f73" rx="2"/>
<text x="427.0" y="288.3" text-anchor="middle" font-family="Arial, sans-serif" font-size="11" fill="#1f2933">17</text>
<rect x="452.0" y="176.2" width="34" height="223.8" fill="#b55a30" rx="2"/>
<text x="469.0" y="170.2" text-anchor="middle" font-family="Arial, sans-serif" font-size="11" fill="#1f2933">36</text>
<text x="444.0" y="424" text-anchor="middle" font-family="Arial, sans-serif" font-size="12" fill="#52616b">NIM</text>
<rect x="525.0" y="331.6" width="34" height="68.4" fill="#2f6f73" rx="2"/>
<text x="542.0" y="325.6" text-anchor="middle" font-family="Arial, sans-serif" font-size="11" fill="#1f2933">11</text>
<rect x="567.0" y="170.0" width="34" height="230.0" fill="#b55a30" rx="2"/>
<text x="584.0" y="164.0" text-anchor="middle" font-family="Arial, sans-serif" font-size="11" fill="#1f2933">37</text>
<text x="559.0" y="424" text-anchor="middle" font-family="Arial, sans-serif" font-size="12" fill="#52616b">NeMo</text>
<text x="660" y="92" font-family="Arial, sans-serif" font-size="16" font-weight="700" fill="#1f2933">Exact answer in context</text>
<line x1="660" y1="400" x2="930" y2="400" stroke="#a7b0b8"/>
<rect x="715.0" y="400.0" width="34" height="0.0" fill="#2f6f73" rx="2"/>
<text x="732.0" y="394.0" text-anchor="middle" font-family="Arial, sans-serif" font-size="11" fill="#1f2933">0%</text>
<rect x="757.0" y="400.0" width="34" height="0.0" fill="#b55a30" rx="2"/>
<text x="774.0" y="394.0" text-anchor="middle" font-family="Arial, sans-serif" font-size="11" fill="#1f2933">0%</text>
<text x="749.0" y="424" text-anchor="middle" font-family="Arial, sans-serif" font-size="12" fill="#52616b">NIM</text>
<rect x="830.0" y="400.0" width="34" height="0.0" fill="#2f6f73" rx="2"/>
<text x="847.0" y="394.0" text-anchor="middle" font-family="Arial, sans-serif" font-size="11" fill="#1f2933">0%</text>
<rect x="872.0" y="400.0" width="34" height="0.0" fill="#b55a30" rx="2"/>
<text x="889.0" y="394.0" text-anchor="middle" font-family="Arial, sans-serif" font-size="11" fill="#1f2933">0%</text>
<text x="864.0" y="424" text-anchor="middle" font-family="Arial, sans-serif" font-size="12" fill="#52616b">NeMo</text>
<rect x="50" y="465" width="16" height="16" fill="#2f6f73" rx="2"/>
<text x="74" y="478" font-family="Arial, sans-serif" font-size="13" fill="#1f2933">Super</text>
<rect x="160" y="465" width="16" height="16" fill="#b55a30" rx="2"/>
<text x="184" y="478" font-family="Arial, sans-serif" font-size="13" fill="#1f2933">Ultra</text>
<text x="50" y="505" font-family="Arial, sans-serif" font-size="12" fill="#52616b">Conclusion: Ultra yield is materially higher; run single-axis Claude quality sample before LoRA proxy training.</text>
</svg>
