<svg xmlns="http://www.w3.org/2000/svg" width="1280" height="760" viewBox="0 0 1280 760" role="img" aria-labelledby="title desc">
<title id="title">Super versus Ultra semantic quotient documentation graph</title>
<desc id="desc">Stacked bars compare semantic similarity and dissimilarity between Nemotron Super and Ultra generated outputs for Curator and logical entailment paths.</desc>
<rect width="100%" height="100%" fill="#ffffff"/>
<text x="72" y="58" font-family="Arial, sans-serif" font-size="28" font-weight="700" fill="#1f2933">Super vs Ultra Semantic Quotient</text>
<text x="72" y="86" font-family="Arial, sans-serif" font-size="14" fill="#5d6978">Llama 3.2 NV EmbedQA 1B v2, 2048 dimensions, input_type=passage. Generated question + answer text only.</text>
<text x="72" y="112" font-family="Arial, sans-serif" font-size="14" fill="#5d6978">Primary metric is symmetric same-source nearest-neighbor cosine. Semantic dissimilarity is 1 - quotient.</text>
<rect x="72" y="124" width="18" height="18" rx="3" fill="#287271"/>
<text x="100" y="138" font-family="Arial, sans-serif" font-size="13" fill="#1f2933">Semantic quotient / similarity</text>
<rect x="318" y="124" width="18" height="18" rx="3" fill="#e9b44c"/>
<text x="346" y="138" font-family="Arial, sans-serif" font-size="13" fill="#1f2933">Dissimilarity</text>
<circle cx="572" cy="133" r="5" fill="#1f2933"/>
<text x="592" y="138" font-family="Arial, sans-serif" font-size="13" fill="#1f2933">Exact-lineage mean cosine</text>
<line x1="360" y1="144" x2="1050" y2="144" stroke="#c5ced8"/>
<line x1="360.0" y1="137" x2="360.0" y2="562" stroke="#d7dee8" stroke-dasharray="2 5"/>
<text x="360.0" y="130" text-anchor="middle" font-family="Arial, sans-serif" font-size="12" fill="#5d6978">0.00</text>
<line x1="532.5" y1="137" x2="532.5" y2="562" stroke="#d7dee8" stroke-dasharray="2 5"/>
<text x="532.5" y="130" text-anchor="middle" font-family="Arial, sans-serif" font-size="12" fill="#5d6978">0.25</text>
<line x1="705.0" y1="137" x2="705.0" y2="562" stroke="#d7dee8" stroke-dasharray="2 5"/>
<text x="705.0" y="130" text-anchor="middle" font-family="Arial, sans-serif" font-size="12" fill="#5d6978">0.50</text>
<line x1="877.5" y1="137" x2="877.5" y2="562" stroke="#d7dee8" stroke-dasharray="2 5"/>
<text x="877.5" y="130" text-anchor="middle" font-family="Arial, sans-serif" font-size="12" fill="#5d6978">0.75</text>
<line x1="1050.0" y1="137" x2="1050.0" y2="562" stroke="#d7dee8" stroke-dasharray="2 5"/>
<text x="1050.0" y="130" text-anchor="middle" font-family="Arial, sans-serif" font-size="12" fill="#5d6978">1.00</text>
<text x="1050" y="110" text-anchor="end" font-family="Arial, sans-serif" font-size="12" font-weight="700" fill="#5d6978">Cosine scale</text>
<rect x="54" y="170" width="1172" height="84" rx="8" fill="#f6f8fb" opacity="0.62"/>
<text x="72" y="196" font-family="Arial, sans-serif" font-size="17" font-weight="700" fill="#1f2933">Curator / NIM</text>
<text x="72" y="219" font-family="Arial, sans-serif" font-size="13" fill="#5d6978">Rows: Super 249, Ultra 248; exact pairs 248</text>
<rect x="360" y="178" width="690" height="42" rx="6" fill="#eef2f6" stroke="#c5ced8"/>
<rect x="360" y="178" width="547.7" height="42" rx="6" fill="#287271"/>
<rect x="901.7" y="178" width="6" height="42" fill="#287271"/>
<rect x="907.7" y="178" width="142.3" height="42" fill="#e9b44c"/>
<rect x="1044.0" y="178" width="6" height="42" rx="6" fill="#e9b44c"/>
<text x="633.8" y="204" text-anchor="middle" font-family="Arial, sans-serif" font-size="15" font-weight="700" fill="#ffffff">0.794</text>
<text x="978.8" y="204" text-anchor="middle" font-family="Arial, sans-serif" font-size="15" font-weight="700" fill="#2b2114">0.206</text>
<line x1="721.2" y1="168" x2="721.2" y2="230" stroke="#1f2933" stroke-width="2"/>
<circle cx="721.2" cy="163" r="5" fill="#1f2933"/>
<text x="721.2" y="245" text-anchor="middle" font-family="Arial, sans-serif" font-size="12" fill="#1f2933">exact 0.523</text>
<text x="1082" y="196" font-family="Arial, sans-serif" font-size="14" font-weight="700" fill="#1f2933">Dissimilarity</text>
<text x="1082" y="219" font-family="Arial, sans-serif" font-size="24" font-weight="700" fill="#1f2933">0.206</text>
<rect x="54" y="274" width="1172" height="84" rx="8" fill="#f6f8fb" opacity="0.62"/>
<text x="72" y="300" font-family="Arial, sans-serif" font-size="17" font-weight="700" fill="#1f2933">Curator / NeMo Microservices</text>
<text x="72" y="323" font-family="Arial, sans-serif" font-size="13" fill="#5d6978">Rows: Super 279, Ultra 279; exact pairs 278</text>
<rect x="360" y="282" width="690" height="42" rx="6" fill="#eef2f6" stroke="#c5ced8"/>
<rect x="360" y="282" width="504.9" height="42" rx="6" fill="#287271"/>
<rect x="858.9" y="282" width="6" height="42" fill="#287271"/>
<rect x="864.9" y="282" width="185.1" height="42" fill="#e9b44c"/>
<rect x="1044.0" y="282" width="6" height="42" rx="6" fill="#e9b44c"/>
<text x="612.4" y="308" text-anchor="middle" font-family="Arial, sans-serif" font-size="15" font-weight="700" fill="#ffffff">0.732</text>
<text x="957.4" y="308" text-anchor="middle" font-family="Arial, sans-serif" font-size="15" font-weight="700" fill="#2b2114">0.268</text>
<line x1="696.2" y1="272" x2="696.2" y2="334" stroke="#1f2933" stroke-width="2"/>
<circle cx="696.2" cy="267" r="5" fill="#1f2933"/>
<text x="696.2" y="349" text-anchor="middle" font-family="Arial, sans-serif" font-size="12" fill="#1f2933">exact 0.487</text>
<text x="1082" y="300" font-family="Arial, sans-serif" font-size="14" font-weight="700" fill="#1f2933">Dissimilarity</text>
<text x="1082" y="323" font-family="Arial, sans-serif" font-size="24" font-weight="700" fill="#1f2933">0.268</text>
<rect x="54" y="378" width="1172" height="84" rx="8" fill="#f6f8fb" opacity="0.62"/>
<text x="72" y="404" font-family="Arial, sans-serif" font-size="17" font-weight="700" fill="#1f2933">Logical Entailment / NIM</text>
<text x="72" y="427" font-family="Arial, sans-serif" font-size="13" fill="#5d6978">Rows: Super 46, Ultra 90; exact pairs 16</text>
<rect x="360" y="386" width="690" height="42" rx="6" fill="#eef2f6" stroke="#c5ced8"/>
<rect x="360" y="386" width="545.9" height="42" rx="6" fill="#287271"/>
<rect x="899.9" y="386" width="6" height="42" fill="#287271"/>
<rect x="905.9" y="386" width="144.1" height="42" fill="#e9b44c"/>
<rect x="1044.0" y="386" width="6" height="42" rx="6" fill="#e9b44c"/>
<text x="633.0" y="412" text-anchor="middle" font-family="Arial, sans-serif" font-size="15" font-weight="700" fill="#ffffff">0.791</text>
<text x="978.0" y="412" text-anchor="middle" font-family="Arial, sans-serif" font-size="15" font-weight="700" fill="#2b2114">0.209</text>
<line x1="774.3" y1="376" x2="774.3" y2="438" stroke="#1f2933" stroke-width="2"/>
<circle cx="774.3" cy="371" r="5" fill="#1f2933"/>
<text x="774.3" y="453" text-anchor="middle" font-family="Arial, sans-serif" font-size="12" fill="#1f2933">exact 0.600</text>
<text x="1082" y="404" font-family="Arial, sans-serif" font-size="14" font-weight="700" fill="#1f2933">Dissimilarity</text>
<text x="1082" y="427" font-family="Arial, sans-serif" font-size="24" font-weight="700" fill="#1f2933">0.209</text>
<rect x="54" y="482" width="1172" height="84" rx="8" fill="#f6f8fb" opacity="0.62"/>
<text x="72" y="508" font-family="Arial, sans-serif" font-size="17" font-weight="700" fill="#1f2933">Logical Entailment / NeMo Microservices</text>
<text x="72" y="531" font-family="Arial, sans-serif" font-size="13" fill="#5d6978">Rows: Super 30, Ultra 103; exact pairs 4</text>
<rect x="360" y="490" width="690" height="42" rx="6" fill="#eef2f6" stroke="#c5ced8"/>
<rect x="360" y="490" width="444.3" height="42" rx="6" fill="#287271"/>
<rect x="798.3" y="490" width="6" height="42" fill="#287271"/>
<rect x="804.3" y="490" width="245.7" height="42" fill="#e9b44c"/>
<rect x="1044.0" y="490" width="6" height="42" rx="6" fill="#e9b44c"/>
<text x="582.1" y="516" text-anchor="middle" font-family="Arial, sans-serif" font-size="15" font-weight="700" fill="#ffffff">0.644</text>
<text x="927.1" y="516" text-anchor="middle" font-family="Arial, sans-serif" font-size="15" font-weight="700" fill="#2b2114">0.356</text>
<line x1="947.5" y1="480" x2="947.5" y2="542" stroke="#1f2933" stroke-width="2"/>
<circle cx="947.5" cy="475" r="5" fill="#1f2933"/>
<text x="947.5" y="557" text-anchor="middle" font-family="Arial, sans-serif" font-size="12" fill="#1f2933">exact 0.851</text>
<text x="1082" y="508" font-family="Arial, sans-serif" font-size="14" font-weight="700" fill="#1f2933">Dissimilarity</text>
<text x="1082" y="531" font-family="Arial, sans-serif" font-size="24" font-weight="700" fill="#1f2933">0.356</text>
<line x1="72" y1="638" x2="1208" y2="638" stroke="#c5ced8"/>
<text x="72" y="672" font-family="Arial, sans-serif" font-size="14" font-weight="700" fill="#1f2933">Highest semantic movement: Logical Entailment / NeMo Microservices at 0.356 dissimilarity.</text>
<text x="72" y="696" font-family="Arial, sans-serif" font-size="13" fill="#5d6978">Centroid cosine is intentionally omitted from the graph because it can hide row-level semantic movement in high-level topical distributions.</text>
<text x="72" y="732" font-family="Arial, sans-serif" font-size="12" fill="#5d6978">Source: semantic_quotient.json, created 2026-07-09T20:10:56.861142Z.</text>
</svg>
